<?xml version="1.0" encoding="UTF-8" standalone="no"?>
<!-- Created with Inkscape (http://www.inkscape.org/) -->

<svg
   xmlns:sketch="http://www.bohemiancoding.com/sketch/ns"
   xmlns:dc="http://purl.org/dc/elements/1.1/"
   xmlns:cc="http://creativecommons.org/ns#"
   xmlns:rdf="http://www.w3.org/1999/02/22-rdf-syntax-ns#"
   xmlns:svg="http://www.w3.org/2000/svg"
   xmlns="http://www.w3.org/2000/svg"
   xmlns:sodipodi="http://sodipodi.sourceforge.net/DTD/sodipodi-0.dtd"
   xmlns:inkscape="http://www.inkscape.org/namespaces/inkscape"
   width="18.062248mm"
   height="18.062201mm"
   viewBox="0 0 64.000092 63.999921"
   id="svg6798"
   version="1.1"
   inkscape:version="0.91 r13725"
   sodipodi:docname="audiocall.svg">
  <defs
     id="defs6800" />
  <sodipodi:namedview
     id="base"
     pagecolor="#5ddbe9"
     bordercolor="#666666"
     borderopacity="1.0"
     inkscape:pageopacity="0"
     inkscape:pageshadow="2"
     inkscape:zoom="22.277203"
     inkscape:cx="7.5980313"
     inkscape:cy="31.999962"
     inkscape:document-units="px"
     inkscape:current-layer="layer1"
     showgrid="false"
     fit-margin-top="0"
     fit-margin-left="0"
     fit-margin-right="0"
     fit-margin-bottom="0"
     inkscape:window-width="1238"
     inkscape:window-height="755"
     inkscape:window-x="-46"
     inkscape:window-y="152"
     inkscape:window-maximized="0" />
  <metadata
     id="metadata6803">
    <rdf:RDF>
      <cc:Work
         rdf:about="">
        <dc:format>image/svg+xml</dc:format>
        <dc:type
           rdf:resource="http://purl.org/dc/dcmitype/StillImage" />
        <dc:title />
      </cc:Work>
    </rdf:RDF>
  </metadata>
  <g
     inkscape:label="Layer 1"
     inkscape:groupmode="layer"
     id="layer1"
     transform="translate(-449.19461,-584.91011)">
    <path
       inkscape:connector-curvature="0"
       id="Fill-53-Copy"
       sketch:type="MSShapeGroup"
       class="st4"
       d="m 468.7141,630.10567 c -6.45166,-6.46832 -11.38528,-14.4586 -15.55988,-22.82937 -4.1746,-7.60979 -1.89755,-14.83909 5.69263,-19.40497 2.65657,-1.52195 4.93363,-1.52195 6.83117,0.76099 0.75902,1.14147 4.55412,5.32685 5.31313,6.8488 3.03608,3.8049 3.03608,6.08784 -2.27705,11.0342 -2.27706,2.28294 -1.51804,4.94637 0,6.46833 l 16.3189,16.36104 c 1.51803,1.52196 4.55411,2.28294 6.45166,0 5.31313,-5.32685 7.59017,-5.32685 11.00576,-2.28294 1.13853,0.76098 5.31314,4.56588 6.83116,5.32686 2.27706,1.90244 2.65658,4.18538 0.75903,6.84881 -4.55411,7.60979 -11.38528,9.89273 -19.35497,5.70735 -7.59019,-3.42442 -15.55988,-7.99028 -22.01154,-14.8391 l 0,0 z"
       style="fill:none;stroke:#ffffff;stroke-width:6;stroke-opacity:1;stroke-miterlimit:4;stroke-dasharray:none" />
  </g>
</svg>
