<svg width="124" height="126" version="1.1" xmlns="http://www.w3.org/2000/svg" desc="Created with imagetracer.js version 1.2.6" ><path fill="rgb(0,0,0)" stroke="rgb(0,0,0)" stroke-width="1" opacity="0" d="M 0 0 L 124 0 L 124 126 L 0 126 L 0 0 Z M 80 7 L 76 12 L 76 15 L 74 15 L 70 17 L 62 25 L 59 33 L 59 55 L 57 58 L 55 59 Q 51 61 52 65 L 61 66 L 58 70 L 61 73 L 64 68 L 67 65 L 111 65 L 111 63 L 104 56 L 104 33 L 102 27 L 96 20 Q 95 16 98 16 Q 97 13 100 14 L 106 21 L 110 31 L 110 35 L 117 35 L 116 25 L 112 17 L 108 12 L 104 8 L 102 9 L 99 7 L 93 15 L 93 16 L 87 15 L 86 10 Q 85 6 80 7 Z M 59 8 L 51 17 L 47 25 L 46 33 L 45 34 L 46 35 L 53 35 L 53 30 L 54 27 L 60 17 L 65 13 L 61 8 L 59 8 Z M 19 30 L 18 31 Q 14 30 15 33 L 13 34 L 11 37 L 8 38 Q 9 41 7 42 L 7 64 L 8 65 Q 7 68 10 67 L 12 72 Q 11 75 14 74 L 16 79 Q 15 81 18 80 Q 17 83 20 85 Q 19 87 22 86 L 24 91 Q 23 93 26 92 Q 26 95 29 96 Q 31 95 30 98 L 46 111 L 65 121 L 88 121 L 91 120 L 93 118 Q 92 115 95 116 L 98 111 L 98 96 Q 95 94 96 92 L 93 91 L 91 88 Q 88 89 88 86 Q 84 87 85 85 L 81 82 L 73 82 L 68 84 L 67 87 Q 63 86 64 89 L 61 89 L 61 88 Q 60 85 57 85 Q 58 82 55 81 Q 52 82 53 80 Q 52 77 49 77 Q 50 74 47 73 Q 44 74 45 72 Q 44 68 41 69 L 39 65 Q 40 61 43 62 Q 43 59 45 59 Q 44 54 47 55 L 47 49 L 45 49 Q 46 45 43 43 Q 44 40 41 41 L 39 37 Q 40 34 38 35 Q 35 34 35 31 L 33 30 L 19 30 Z M 75 68 L 76 74 L 82 76 L 87 74 L 88 72 Q 88 68 88 68 L 75 68 Z " /><path fill="rgb(0,0,0)" stroke="rgb(0,0,0)" stroke-width="1" opacity="0" d="M 24.5 39 Q 27.5 38.5 28 40.5 Q 26.88 43.83 29.5 43 L 34 48.5 L 35 53.5 L 31 56.5 L 30 60 L 28 60.5 L 28 71 Q 31 69.75 30 73.5 Q 31.13 76.5 34 76 L 34 77.5 L 55.5 99 L 57.5 100 L 67.5 100 L 72 98 L 73.5 95 L 78.5 94 Q 79.58 96.75 83 96 Q 82.5 98.87 85.5 100 L 87 100 L 87 102 Q 89.67 100.88 89 103.5 L 87 108 L 85 108 Q 86.13 110.67 83.5 110 Q 80.6 113.6 72.5 112 L 63.5 107 L 59 106 Q 60.25 103 56.5 104 Q 55.42 101.25 52 102 L 50.5 99 Q 47.5 99.5 47 97.5 Q 47.75 95.25 45.5 96 Q 44.25 92.5 41 93 L 41 91 L 39 91 L 39 89 Q 36.33 90.13 37 87.5 Q 31.75 84.75 31 79 L 28 77.5 Q 28.5 74.5 26.5 74 Q 23.88 74.83 25 71.5 L 23 67 Q 20 68.25 21 64.5 L 16 55.5 L 16 47.5 L 20.5 42 L 24.5 39 Z " /><path fill="rgb(204,203,203)" stroke="rgb(204,203,203)" stroke-width="1" opacity="1" d="M 88.5 29 L 88.5 30 L 88.5 29 Z " /><path fill="rgb(204,203,203)" stroke="rgb(204,203,203)" stroke-width="1" opacity="1" d="M 79.5 36 L 79.5 37 L 79.5 36 Z " /><path fill="rgb(255,255,255)" stroke="rgb(255,255,255)" stroke-width="1" opacity="1" d="M 79.5 7 Q 85 6 86 9.5 L 87 15 L 92 16 L 87 25.5 L 65 58.5 L 62 65 L 52.5 65 Q 51.75 65.25 52 62.5 L 54.5 59 L 57 57.5 L 59 54.5 L 59 32.5 L 62 24.5 L 69.5 17 L 73.5 15 L 76 15 L 76 11.5 L 79.5 7 Z " /><path fill="rgb(255,255,255)" stroke="rgb(255,255,255)" stroke-width="1" opacity="1" d="M 58.5 8 L 60.5 8 L 65 12.5 L 60 16.5 L 54 26.5 L 53 29.5 L 53 35 L 45.5 35 L 45 33.5 L 46 32.5 L 47 24.5 L 51 16.5 L 58.5 8 Z " /><path fill="rgb(255,255,255)" stroke="rgb(255,255,255)" stroke-width="1" opacity="1" d="M 102.5 8 Q 106.38 8.63 108 11.5 L 112 16.5 L 116 24.5 L 117 35 L 110 35 L 110 30.5 L 106 20.5 L 99 12.5 L 102.5 8 Z " /><path fill="rgb(255,255,255)" stroke="rgb(255,255,255)" stroke-width="1" opacity="1" d="M 95.5 19 L 102 26.5 L 104 32.5 L 104 55.5 L 111 62.5 L 111 65 L 66 64.5 L 95.5 19 Z " /><path fill="rgb(255,255,255)" stroke="rgb(255,255,255)" stroke-width="1" opacity="1" d="M 18.5 30 L 32.5 30 L 35 31 Q 34.5 33.88 37.5 35 Q 39.75 34.25 39 36.5 L 41 41 Q 43.67 39.88 43 42.5 Q 45.8 44.51 45 49 L 47 49 L 47 55 Q 43.67 53.69 45 58.5 Q 42.5 59.5 43 62 Q 40.13 61.5 39 64.5 L 41 69 Q 43.88 68.5 45 71.5 Q 44.25 73.75 46.5 73 Q 49.5 74.13 49 77 Q 51.88 76.5 53 79.5 Q 52.25 81.75 54.5 81 Q 57.5 82.12 57 85 Q 59.88 84.5 61 87.5 L 61 89 L 64 89 Q 62.75 86 66.5 87 L 68 84 L 72.5 82 L 80.5 82 L 85 84.5 Q 84.17 87.13 87.5 86 Q 88.5 88.5 91 88 L 92.5 91 L 96 92 Q 95.5 94.5 98 95.5 L 98 110.5 L 94.5 116 Q 92.25 115.25 93 117.5 L 90.5 120 L 87.5 121 L 64.5 121 L 45.5 111 L 30 97.5 Q 30.75 95.25 28.5 96 Q 25.5 94.88 26 92 Q 23.33 93.13 24 90.5 L 22 86 Q 19.33 87.13 20 84.5 Q 17.25 83.42 18 80 Q 15.33 81.13 16 78.5 L 14 74 Q 11 75.25 12 71.5 L 9.5 67 Q 6.88 67.83 8 64.5 L 7 63.5 L 7 41.5 Q 8.75 40.58 8 38 L 11 36.5 L 12.5 34 L 15 32.5 Q 14.17 29.88 17.5 31 L 18.5 30 Z M 25 39 L 21 42 L 16 48 L 16 56 L 21 65 Q 20 68 23 67 L 25 72 Q 24 75 27 74 Q 29 75 28 78 L 31 79 Q 32 85 37 88 Q 36 90 39 89 L 39 91 L 41 91 L 41 93 Q 44 93 46 96 Q 48 95 47 98 Q 47 100 51 99 L 52 102 Q 55 101 57 104 Q 60 103 59 106 L 64 107 L 73 112 Q 81 114 84 110 Q 86 111 85 108 L 87 108 L 89 104 Q 90 101 87 102 L 87 100 L 86 100 Q 83 99 83 96 Q 80 97 79 94 L 74 95 L 72 98 L 68 100 L 58 100 L 56 99 L 34 78 L 34 76 Q 31 77 30 74 Q 31 70 28 71 L 28 61 L 30 60 L 31 57 L 35 54 L 34 49 L 30 43 Q 27 44 28 41 Q 28 39 25 39 Z " /><path fill="rgb(255,255,255)" stroke="rgb(255,255,255)" stroke-width="1" opacity="1" d="M 74.5 68 L 87.5 68 Q 88.38 67.88 88 71.5 L 87 74 L 81.5 76 L 76 74 L 74.5 68 Z " /><path fill="rgb(255,5,0)" stroke="rgb(255,5,0)" stroke-width="1" opacity="0.611764705882353" d="M 98.5 7 L 101 9.5 L 100.5 10 L 98.5 9 L 92.5 17 L 93 15.5 L 98.5 7 Z " /><path fill="rgb(255,5,0)" stroke="rgb(255,5,0)" stroke-width="1" opacity="0.611764705882353" d="M 98.5 13 L 98 14.5 L 95.5 19 L 95 17.5 L 98.5 13 Z " /><path fill="rgb(255,5,0)" stroke="rgb(255,5,0)" stroke-width="1" opacity="0.611764705882353" d="M 61.5 65 Q 63 66 60.5 67 Q 59 66 61.5 65 Z " /><path fill="rgb(255,5,0)" stroke="rgb(255,5,0)" stroke-width="1" opacity="0.611764705882353" d="M 65.5 65 L 66 65.5 L 64 67.5 L 62.5 70 L 63 68.5 L 65.5 65 Z " /><path fill="rgb(255,5,0)" stroke="rgb(255,5,0)" stroke-width="1" opacity="0.611764705882353" d="M 59.5 68 L 59 69.5 Q 58.17 72.13 61.5 71 Q 63 72 60.5 73 L 58 69.5 L 59.5 68 Z " /><path fill="rgb(214,2,0)" stroke="rgb(214,2,0)" stroke-width="1" opacity="0.996078431372549" d="M 98.5 9 L 101 10.5 L 95 17.5 L 94 21.5 L 88 29.5 L 87 32.5 L 81 40.5 L 80 43.5 L 67 63.5 L 63 67.5 L 62 71 L 59 71 L 59 69.5 L 62 65.5 L 62 63.5 L 65 58.5 L 87 25.5 L 88 22.5 L 98.5 9 Z " /></svg>