<?xml version="1.0" encoding="UTF-8" standalone="no"?>
<!-- Created with Inkscape (http://www.inkscape.org/) -->

<svg
   xmlns:sketch="http://www.bohemiancoding.com/sketch/ns"
   xmlns:dc="http://purl.org/dc/elements/1.1/"
   xmlns:cc="http://creativecommons.org/ns#"
   xmlns:rdf="http://www.w3.org/1999/02/22-rdf-syntax-ns#"
   xmlns:svg="http://www.w3.org/2000/svg"
   xmlns="http://www.w3.org/2000/svg"
   xmlns:sodipodi="http://sodipodi.sourceforge.net/DTD/sodipodi-0.dtd"
   xmlns:inkscape="http://www.inkscape.org/namespaces/inkscape"
   width="200"
   height="156"
   viewBox="0 0 200 155.99999"
   id="svg2"
   version="1.1"
   inkscape:version="0.91 r13725"
   sodipodi:docname="groupchat-members.svg">
  <defs
     id="defs4" />
  <sodipodi:namedview
     id="base"
     pagecolor="#00dbdb"
     bordercolor="#666666"
     borderopacity="1.0"
     inkscape:pageopacity="0"
     inkscape:pageshadow="2"
     inkscape:zoom="3.2697228"
     inkscape:cx="97.971"
     inkscape:cy="71.758523"
     inkscape:document-units="px"
     inkscape:current-layer="g5426"
     showgrid="false"
     fit-margin-top="0"
     fit-margin-left="0"
     fit-margin-right="0"
     fit-margin-bottom="0"
     inkscape:window-width="1238"
     inkscape:window-height="755"
     inkscape:window-x="0"
     inkscape:window-y="23"
     inkscape:window-maximized="0"
     units="px" />
  <metadata
     id="metadata7">
    <rdf:RDF>
      <cc:Work
         rdf:about="">
        <dc:format>image/svg+xml</dc:format>
        <dc:type
           rdf:resource="http://purl.org/dc/dcmitype/StillImage" />
        <dc:title />
      </cc:Work>
    </rdf:RDF>
  </metadata>
  <g
     inkscape:label="Layer 1"
     inkscape:groupmode="layer"
     id="layer1"
     transform="translate(-198.74732,-193.48758)">
    <g
       id="g5426"
       transform="translate(0,5.8771738)">
      <g
         id="g5430"
         transform="translate(0,0.8245656)"
         style="stroke-width:12;stroke-miterlimit:4;stroke-dasharray:none">
        <path
           inkscape:connector-curvature="0"
           style="fill:none;fill-opacity:1;stroke:#ffffff;stroke-width:12;stroke-miterlimit:4;stroke-dasharray:none;stroke-opacity:1"
           d="m 142.7207,21.771484 c -14.78289,0 -26.95703,9.565077 -26.95703,24.347657 l 0,12.173828 c 0,3.47793 -1.73828,0.87031 -1.73828,6.08789 0,0 1.73876,13.913404 4.34766,14.783203 0.86975,0.86953 3.47851,0.868102 3.47851,2.607422 0,0 0.86883,6.956383 1.73828,8.695313 0.86983,2.6088 3.48047,6.087351 3.48047,6.957031 0,0 0.86914,0.870155 0.86914,2.609372 0,0.86953 -0.86914,2.60742 -0.86914,2.60742 0,0 -5.21773,2.60928 -6.95703,3.47852 -1.73902,0.8698 -2.60937,5.21777 -2.60937,6.95703 -1.08128,0.30893 -3.13721,1.12739 -5.51758,2.12305 12.30844,5.62308 25.99006,12.41559 28.33203,14.75781 2.98508,2.98492 2.98437,20.89453 2.98437,20.89453 l 0,1.99024 c 0,3.49923 -1.97051,6.00722 -4.52343,7.1914 l 67.41992,0 c 3.47848,0 6.95703,-2.609 6.95703,-6.95703 l 0,-1.73828 c 0,0 -7e-4,-15.65308 -2.60937,-18.26172 -3.4783,-3.47865 -35.65154,-18.26094 -41.73829,-20 0,-0.8696 -0.87033,-6.08723 -2.60937,-6.95703 -1.73924,-0.86924 -6.95703,-3.47852 -6.95703,-3.47852 0,0 -0.86914,-1.73789 -0.86914,-2.60742 0,-0.869427 0.86914,-2.609372 0.86914,-2.609372 0.8698,-1.73934 3.47851,-4.348231 3.47851,-6.957031 0.8695,-2.60859 1.74024,-8.695313 1.74024,-8.695313 0,-1.73932 1.73947,-1.737892 3.47851,-2.607422 2.60888,-0.869799 4.34766,-14.783203 4.34766,-14.783203 0,-4.3479 -1.74023,-2.60996 -1.74023,-6.08789 l 0,-12.173828 c 0,-14.78258 -12.17415,-24.347657 -26.95704,-24.347657 l -0.86914,0 z"
           transform="translate(198.74732,189.48757)"
           id="Fill-5-Copy-8-4" />
        <path
           inkscape:connector-curvature="0"
           id="Fill-5-Copy-8"
           sketch:type="MSShapeGroup"
           class="st11"
           d="m 290.98617,296.40072 c 0,-0.99558 -0.99552,-6.96536 -2.98478,-7.96074 -1.99034,-0.99424 -7.96084,-3.97974 -7.96084,-3.97974 0,0 -0.99424,-1.99024 -0.99424,-2.9852 0,-0.99442 0.99424,-2.98468 0.99424,-2.98468 0.99558,-1.99044 3.9808,-4.97554 3.9808,-7.96084 0.99546,-2.98488 1.9897,-9.94972 1.9897,-9.94972 0,-1.99034 1.99034,-1.99034 3.98016,-2.9853 2.98542,-0.9956 4.97532,-16.9155 4.97532,-16.9155 0,-4.97528 -1.9899,-2.98542 -1.9899,-6.96494 l 0,-13.93094 c 0,-16.9155 -13.93052,-27.8608 -30.84654,-27.8608 l -0.99424,0 c -16.91602,0 -30.84654,10.9453 -30.84654,27.8608 l 0,13.93094 c 0,3.97952 -1.9896,0.99424 -1.9896,6.96494 0,0 1.9896,15.9201 4.97502,16.9155 0.99558,0.99558 3.98026,0.99558 3.98026,2.9853 0,0 0.99434,7.96006 1.9896,9.94972 0.9956,2.9853 3.9808,6.96562 3.9808,7.96084 0,0 0.99424,0.99424 0.99424,2.98468 0,0.99552 -0.99424,2.9852 -0.99424,2.9852 0,0 -5.9704,2.9853 -7.96074,3.97974 -1.98992,0.99562 -2.98488,5.9705 -2.98488,7.96074 -6.96494,1.98992 -42.78622,18.90514 -47.76162,22.8858 -2.98508,2.98492 -2.98508,20.89544 -2.98508,20.89544 l 0,1.98986 c 0,3.98044 2.98508,7.96048 7.96048,7.96048 l 144.27904,0 c 3.98044,0 7.96048,-2.98508 7.96048,-7.96048 l 0,-1.98986 c 0,0 0,-17.91052 -2.98508,-20.89544 -3.98024,-3.98066 -40.79668,-20.89588 -47.76162,-22.8858 z"
           style="fill:none;fill-opacity:1;stroke:#ffffff;stroke-width:12;stroke-miterlimit:4;stroke-dasharray:none;stroke-opacity:1" />
      </g>
    </g>
  </g>
</svg>
