<?xml version="1.0" encoding="UTF-8" standalone="no"?>
<!-- Created with Inkscape (http://www.inkscape.org/) -->

<svg
   xmlns:sketch="http://www.bohemiancoding.com/sketch/ns"
   xmlns:dc="http://purl.org/dc/elements/1.1/"
   xmlns:cc="http://creativecommons.org/ns#"
   xmlns:rdf="http://www.w3.org/1999/02/22-rdf-syntax-ns#"
   xmlns:svg="http://www.w3.org/2000/svg"
   xmlns="http://www.w3.org/2000/svg"
   xmlns:sodipodi="http://sodipodi.sourceforge.net/DTD/sodipodi-0.dtd"
   xmlns:inkscape="http://www.inkscape.org/namespaces/inkscape"
   width="167.77521"
   height="64.054245"
   viewBox="0 0 167.77521 64.054245"
   id="svg4464"
   version="1.1"
   inkscape:version="0.91 r13725"
   sodipodi:docname="hangup.svg">
  <defs
     id="defs4466" />
  <sodipodi:namedview
     id="base"
     pagecolor="#ffffff"
     bordercolor="#666666"
     borderopacity="1.0"
     inkscape:pageopacity="0.0"
     inkscape:pageshadow="2"
     inkscape:zoom="4.9530863"
     inkscape:cx="67.736425"
     inkscape:cy="23.951349"
     inkscape:document-units="px"
     inkscape:current-layer="layer1"
     showgrid="false"
     units="px"
     inkscape:window-width="960"
     inkscape:window-height="600"
     inkscape:window-x="131"
     inkscape:window-y="120"
     inkscape:window-maximized="0"
     fit-margin-top="0"
     fit-margin-left="0"
     fit-margin-right="0"
     fit-margin-bottom="0" />
  <metadata
     id="metadata4469">
    <rdf:RDF>
      <cc:Work
         rdf:about="">
        <dc:format>image/svg+xml</dc:format>
        <dc:type
           rdf:resource="http://purl.org/dc/dcmitype/StillImage" />
        <dc:title />
      </cc:Work>
    </rdf:RDF>
  </metadata>
  <g
     inkscape:label="Layer 1"
     inkscape:groupmode="layer"
     id="layer1"
     transform="translate(62.915701,-1012.3283)">
    <path
       inkscape:connector-curvature="0"
       id="Fill-1_22_"
       sketch:type="MSShapeGroup"
       class="st19"
       d="m -3.8459528,1036.7283 49.9999998,0 c 6.8,0 14,4.8 14,13.6 0,14.8 2.8,15.2 10,16 2,0.4 8.4,0.8 12.8,1.2 l 5.2,0.4 c 4.4,0.4 6.4,-1.2 7.6,-6 4,-16 -2,-27.6 -17.6,-32 -18,-5.2 -37.2,-10 -57.2,-10 -19.5999998,0 -39.2,4.8 -57.199998,10 -15.6,4.4 -22,15.6 -17.6,32 1.2,4.8 3.2,6.4 7.6,6 1.2,0 2.8,-0.4 5.2,-0.4 4.8,-0.4 10.8,-0.8 12.8,-1.2 6.799998,-0.8 9.999998,-1.2 9.999998,-16 0,-8.8 7.6,-13.6 14.4000002,-13.6 m 93.1999998,39.6 c -0.8,0 -1.2,0 -2,0 l -5.2,-0.4 c -4.8,-0.4 -11.2,-1.2 -13.2,-1.2 -12.8,-1.6 -17.2,-7.6 -16.8,-24 0,-4.4 -4,-5.6 -6,-5.6 l -49.9999998,0 c -2.4,0 -6,1.2 -6,5.6 0,16.4 -4.0000002,22.4 -16.7999982,24 -2.4,0.4 -8.4,0.8 -13.2,1.2 l -5.2,0.4 c -6,0.4 -13.6,-1.2 -16.4,-12 -5.2,-20.4 3.6,-36 23.2,-41.6 18.399998,-5.2 38.39999822,-10.4 59.199998,-10.4 20.8,0 40.8,5.2 59.2,10.4 20.000003,5.6 28.400003,21.2 23.200003,41.6 -2.4,9.6 -8.800003,12 -14.000003,12"
       style="fill:#d40000" />
  </g>
</svg>
