<?xml version="1.0" ?><!DOCTYPE svg  PUBLIC '-//W3C//DTD SVG 1.1//EN'  'http://www.w3.org/Graphics/SVG/1.1/DTD/svg11.dtd'><svg height="128px" id="Layer_1" style="enable-background:new 0 0 128 128;" version="1.1" viewBox="0 0 128 128" width="128px" xml:space="preserve" xmlns="http://www.w3.org/2000/svg" xmlns:xlink="http://www.w3.org/1999/xlink"><g><path d="M100.143,32.911c-6.521-6.528-14.839-11.293-24.127-13.534v14.277   c5.483,1.86,10.395,4.951,14.417,8.967c6.775,6.787,10.945,16.088,10.948,26.433c-0.003,10.346-4.173,19.647-10.948,26.433   c-6.786,6.774-16.088,10.945-26.433,10.949c-10.344-0.004-19.646-4.175-26.433-10.949c-6.775-6.785-10.945-16.087-10.949-26.433   c0.003-10.344,4.173-19.646,10.949-26.433c4.023-4.017,8.934-7.106,14.417-8.967V19.376c-9.288,2.241-17.607,7.006-24.127,13.534   c-9.239,9.229-14.974,22.05-14.971,36.143c-0.003,14.094,5.731,26.916,14.971,36.143c9.229,9.238,22.05,14.974,36.143,14.972   c14.093,0.002,26.915-5.733,36.143-14.972c9.24-9.227,14.975-22.049,14.971-36.143C115.117,54.961,109.383,42.139,100.143,32.911z" style="fill:#2F3435;"/><g><polyline points="70.865,61.521 70.865,7.833 57.134,7.833 57.134,61.521   " style="fill:#2F3435;"/></g></g></svg>