<?xml version="1.0" encoding="UTF-8" standalone="no"?>
<!-- Created with Inkscape (http://www.inkscape.org/) -->

<svg
   xmlns:dc="http://purl.org/dc/elements/1.1/"
   xmlns:cc="http://creativecommons.org/ns#"
   xmlns:rdf="http://www.w3.org/1999/02/22-rdf-syntax-ns#"
   xmlns:svg="http://www.w3.org/2000/svg"
   xmlns="http://www.w3.org/2000/svg"
   xmlns:sodipodi="http://sodipodi.sourceforge.net/DTD/sodipodi-0.dtd"
   xmlns:inkscape="http://www.inkscape.org/namespaces/inkscape"
   width="69.511421"
   height="72.248466"
   viewBox="0 0 69.511427 72.248468"
   id="svg22109"
   version="1.1"
   inkscape:version="0.91 r13725"
   sodipodi:docname="mic.svg">
  <defs
     id="defs22111" />
  <sodipodi:namedview
     id="base"
     pagecolor="#000000"
     bordercolor="#666666"
     borderopacity="1.0"
     inkscape:pageopacity="0"
     inkscape:pageshadow="2"
     inkscape:zoom="13.750675"
     inkscape:cx="22.880473"
     inkscape:cy="49.08851"
     inkscape:document-units="px"
     inkscape:current-layer="g22847"
     showgrid="false"
     inkscape:window-width="1238"
     inkscape:window-height="755"
     inkscape:window-x="46"
     inkscape:window-y="41"
     inkscape:window-maximized="0"
     fit-margin-top="0"
     fit-margin-bottom="0"
     fit-margin-left="10"
     fit-margin-right="12"
     units="px" />
  <metadata
     id="metadata22114">
    <rdf:RDF>
      <cc:Work
         rdf:about="">
        <dc:format>image/svg+xml</dc:format>
        <dc:type
           rdf:resource="http://purl.org/dc/dcmitype/StillImage" />
        <dc:title></dc:title>
      </cc:Work>
    </rdf:RDF>
  </metadata>
  <g
     inkscape:label="Layer 1"
     inkscape:groupmode="layer"
     id="layer1"
     transform="translate(-321.27127,-572.94044)">
    <g
       id="g22847"
       transform="matrix(4,0,0,4,-1064.6565,-1827.3561)">
      <path
         style="fill:#d7d7d7;fill-opacity:1;stroke:none;stroke-opacity:1"
         sodipodi:nodetypes="ccccsccscsccsccccc"
         inkscape:connector-curvature="0"
         id="Fill-6_5_"
         d="m 358.77082,618.13402 0,-0.99969 -3.13348,0 0,-1.99939 c 3.13348,-0.29991 5.22246,-2.59921 5.22246,-5.49832 l 0,-1.49954 -1.04451,-1.5e-4 0,1.49954 c 0,2.49923 -2.08899,4.49862 -4.67752,4.49852 -2.58854,-9e-5 -4.73092,-1.99948 -4.73092,-4.49871 l 0,-1.49954 -1.04463,1.9e-4 0,1.49954 c 0,2.89911 2.08898,5.19841 5.22245,5.49832 l 0,1.99939 -3.13347,0 0,0.99969 c 1.21672,10e-4 2.4333,0.008 3.6496,-0.008" />
      <rect
         ry="2.7885518"
         rx="2.9885259"
         y="602.64789"
         x="352.12589"
         height="9.5739899"
         width="5.9770517"
         id="rect22679"
         style="fill:#000000;fill-rule:evenodd;stroke:#d6d6d6;stroke-width:1.10570192;stroke-linecap:butt;stroke-linejoin:miter;stroke-miterlimit:4;stroke-dasharray:none;stroke-opacity:1;fill-opacity:0" />
    </g>
  </g>
</svg>
