<?xml version="1.0" encoding="UTF-8" standalone="no"?>
<!-- Created with Inkscape (http://www.inkscape.org/) -->

<svg
   xmlns:sketch="http://www.bohemiancoding.com/sketch/ns"
   xmlns:dc="http://purl.org/dc/elements/1.1/"
   xmlns:cc="http://creativecommons.org/ns#"
   xmlns:rdf="http://www.w3.org/1999/02/22-rdf-syntax-ns#"
   xmlns:svg="http://www.w3.org/2000/svg"
   xmlns="http://www.w3.org/2000/svg"
   xmlns:sodipodi="http://sodipodi.sourceforge.net/DTD/sodipodi-0.dtd"
   xmlns:inkscape="http://www.inkscape.org/namespaces/inkscape"
   width="136.81178"
   height="101.9011"
   viewBox="0 0 136.81178 101.9011"
   id="svg6138"
   version="1.1"
   inkscape:version="0.91 r13725"
   sodipodi:docname="viewchat.svg">
  <defs
     id="defs6140" />
  <sodipodi:namedview
     id="base"
     pagecolor="#000000"
     bordercolor="#666666"
     borderopacity="1.0"
     inkscape:pageopacity="0"
     inkscape:pageshadow="2"
     inkscape:zoom="4.288472"
     inkscape:cx="68.405886"
     inkscape:cy="50.950548"
     inkscape:document-units="px"
     inkscape:current-layer="Fill-1-_x2B_-Fill-3_1_"
     showgrid="false"
     fit-margin-top="0"
     fit-margin-left="0"
     fit-margin-right="0"
     fit-margin-bottom="0"
     units="px"
     inkscape:window-width="1052"
     inkscape:window-height="642"
     inkscape:window-x="155"
     inkscape:window-y="23"
     inkscape:window-maximized="0" />
  <metadata
     id="metadata6143">
    <rdf:RDF>
      <cc:Work
         rdf:about="">
        <dc:format>image/svg+xml</dc:format>
        <dc:type
           rdf:resource="http://purl.org/dc/dcmitype/StillImage" />
        <dc:title></dc:title>
      </cc:Work>
    </rdf:RDF>
  </metadata>
  <g
     inkscape:label="Layer 1"
     inkscape:groupmode="layer"
     id="layer1"
     transform="translate(-200.16554,-444.2688)">
    <g
       id="Fill-1-_x2B_-Fill-3_1_"
       transform="matrix(4,0,0,4,931.77091,-6755.8301)"
       sketch:type="MSLayerGroup"
       style="fill:#ffffff;fill-opacity:1">
      <path
         inkscape:connector-curvature="0"
         id="Fill-1_20_"
         sketch:type="MSShapeGroup"
         class="st20"
         d="m -159.8,1807.3 0.2,2 c 0.2,2.3 -0.3,4.4 -1.6,6.1 -1.3,1.7 -3.3,2.9 -5.7,3.4 l -2.4,0.5 1.5,1.9 c 1.6,2 4.1,3.2 7,3.4 0.3,0 0.7,0 1.1,0 0.7,0 1.5,0 2.3,-0.1 1.1,0.7 2.5,1 4.2,1 0.4,0 0.7,0 1.2,0 1.2,-0.1 1.7,-0.9 1.7,-1.5 0.1,-0.6 -0.2,-1.4 -1.2,-1.7 1.4,-1.2 2.7,-2.7 2.8,-4.9 0.1,-5 -4.5,-8.6 -9.1,-9.6 l -0.2,0 -1.8,-0.5 z m 1.7,1.8 0.2,0 c 4,0.9 8,3.9 7.9,8.1 -0.1,1.9 -1.4,3.2 -3,4.4 -0.1,0.1 -0.2,0.2 -0.3,0.4 0,0.8 0.6,1.3 1.3,1.5 0.4,0.1 0.5,0.3 0,0.4 -0.3,0 -0.7,0 -1.1,0 -1.4,0 -2.8,-0.2 -3.8,-1.1 -0.9,0.1 -1.8,0.2 -2.7,0.2 -0.3,0 -0.7,0 -1,0 -2.6,-0.2 -4.7,-1.2 -6,-2.8 2.7,-0.6 5,-1.9 6.5,-4 1.6,-1.9 2.3,-4.4 2,-7.1 l 0,0 z"
         style="fill:#d6d6d6;fill-opacity:1" />
      <path
         inkscape:connector-curvature="0"
         id="Fill-3_6_"
         sketch:type="MSShapeGroup"
         class="st21"
         d="m -171.7,1802.3 c -4.7,1.1 -9.4,4.7 -9.3,9.6 0.1,2.5 1.8,4 3.3,4.9 0.5,0.3 0.8,0.8 0.8,1.4 0,0.6 -0.1,1.1 -0.4,1.5 1.2,-0.1 2.4,-0.4 3.3,-1.1 l 0.3,-0.3 0.4,0.1 c 1.8,0.2 3.2,0.3 4.5,0.2 3,-0.2 5.6,-1.5 7.1,-3.5 1.4,-1.9 1.9,-4.3 1.3,-6.9 -0.4,-2.1 -1.5,-3.6 -3.2,-4.7 -1.9,-1.5 -5,-1.9 -8.1,-1.2 m -6.5,19.4 c -0.5,0 -1,0 -1.4,-0.1 -1.2,-0.1 -1.4,-0.9 -1.4,-1.1 0,-0.5 0.2,-1.1 1.2,-1.3 0.2,-0.1 0.9,-0.3 1,-0.8 -2.6,-1.5 -4.1,-3.8 -4.1,-6.4 -0.1,-6 5.4,-10.4 10.9,-11.6 l 0,0 c 3.6,-0.8 7.2,-0.3 9.8,1.3 2.1,1.3 3.5,3.4 4,6 0.7,3.2 0.1,6.2 -1.6,8.6 -1.9,2.5 -4.9,4.1 -8.5,4.3 -1.3,0.1 -2.8,0 -4.5,-0.2 -1.8,1.1 -3.7,1.3 -5.4,1.3"
         style="fill:#d6d6d6;fill-opacity:1" />
    </g>
  </g>
</svg>
